<?xml version="1.0" encoding="utf-8"?>
<!-- Generator: Adobe Illustrator 16.2.0, SVG Export Plug-In . SVG Version: 6.00 Build 0)  -->
<!DOCTYPE svg PUBLIC "-//W3C//DTD SVG 1.1//EN" "http://www.w3.org/Graphics/SVG/1.1/DTD/svg11.dtd">
<svg version="1.1" id="Layer_1" xmlns="http://www.w3.org/2000/svg" xmlns:xlink="http://www.w3.org/1999/xlink" x="0px" y="0px"
	 width="230px" height="50.012px" viewBox="0 0 230 50.012" enable-background="new 0 0 230 50.012" xml:space="preserve">
<g>
	<ellipse fill="#FF5622" cx="81.516" cy="25.006" rx="25.006" ry="25.006"/>
	<path marker-end="none" marker-start="none" fill="#FFFFFF" d="M74.26,43.144c1.891-0.913,3.869-2.251,5.229-3.419l7.673-7.535
		c0.44-0.427,0.382-1.193-0.125-1.708c-0.505-0.513-1.274-0.583-1.711-0.152l-2.915,2.861l-0.612-0.621l4.503-4.418
		c0.439-0.428,0.383-1.195-0.123-1.71c-0.514-0.52-1.271-0.583-1.712-0.15l-4.504,4.418l-0.616-0.627l5.026-4.935
		c0.442-0.429,0.394-1.188-0.122-1.709c-0.507-0.513-1.271-0.58-1.71-0.153l-5.032,4.938l-0.613-0.621l3.713-3.639
		c0.44-0.429,0.384-1.195-0.125-1.709c-0.508-0.517-1.272-0.583-1.711-0.154l-6.308,6.188c0,0-1.321-3.924-1.336-3.951
		c-0.055-0.168-0.147-0.326-0.278-0.46c-0.187-0.186-0.41-0.304-0.646-0.338c-0.026-0.016-1.451-0.155-1.451-0.155l-0.229,7.821
		c0.033,0.577-2.012,2.896-3.168,4.563c-0.565-0.852-1.006-1.701-1.285-2.51c0.643-1.635,1.6-4.104,1.631-5.597l1.501-13.667
		c0,0,2.467,0.044,2.514,0.068c0.402,0.028,0.78,0.2,1.073,0.496c0.212,0.216,0.35,0.477,0.42,0.761
		c0.025,0.048,1.771,6.702,1.771,6.702l13.193-12.94c0.823-0.81,2.15-0.799,2.965,0.025c0.811,0.825,0.799,2.151-0.025,2.963
		l-6.979,6.869l0.979,0.989l9.466-9.313c0.819-0.811,2.147-0.8,2.96,0.024c0.818,0.836,0.801,2.148-0.023,2.962l-9.465,9.311
		l0.986,1.006l8.473-8.338c0.827-0.811,2.145-0.81,2.963,0.025c0.813,0.821,0.803,2.149-0.022,2.962l-8.472,8.336l0.977,0.994
		l5.484-5.397c0.828-0.812,2.15-0.803,2.963,0.021c0.813,0.825,0.803,2.152-0.022,2.965L84.934,39.702
		c-2.197,2.164-3.471,3.069-7.787,4.342C76.191,43.866,75.223,43.558,74.26,43.144z"/>
	<path marker-end="none" marker-start="none" fill="#0053B0" d="M216.578,41.566c-0.271-0.39-0.313-0.808-0.123-1.253l2.438-5.656
		c0.047-0.095,0.07-0.188,0.07-0.284c0-0.094-0.023-0.188-0.07-0.281l-5.867-16.222c-0.141-0.471-0.082-0.9,0.176-1.289
		c0.262-0.391,0.641-0.583,1.133-0.583h1.061c0.588,0,1.131,0.182,1.627,0.547c0.494,0.364,0.813,0.83,0.953,1.395l3.287,11.56
		c0,0.022,0.012,0.032,0.037,0.032c0.021,0,0.033-0.01,0.033-0.032l3.781-11.594c0.189-0.563,0.529-1.023,1.025-1.378
		c0.494-0.354,1.037-0.527,1.625-0.527h0.85c0.494,0,0.877,0.196,1.146,0.598c0.271,0.402,0.313,0.826,0.125,1.272l-8.625,22.408
		c-0.211,0.563-0.564,1.02-1.061,1.359c-0.492,0.341-1.047,0.513-1.66,0.513h-0.848C217.221,42.149,216.85,41.952,216.578,41.566z
		 M1.573,33.154C0.525,32.105,0,30.744,0,29.071c0-2.049,0.784-3.64,2.349-4.769c1.566-1.132,3.964-1.698,7.195-1.698h1.448
		c0.211,0,0.316-0.104,0.316-0.318v-0.281c0-1.084-0.259-1.846-0.777-2.28c-0.518-0.438-1.438-0.655-2.757-0.655
		c-1.366,0-3.039,0.248-5.018,0.744c-0.423,0.117-0.813,0.04-1.167-0.229c-0.353-0.272-0.53-0.632-0.53-1.079
		c0-0.543,0.165-1.032,0.496-1.467c0.329-0.438,0.752-0.703,1.272-0.797c1.791-0.397,3.475-0.6,5.053-0.6
		c3.017,0,5.125,0.541,6.326,1.625c1.203,1.084,1.803,2.979,1.803,5.69v9.401c0,0.541-0.194,1.013-0.583,1.413
		c-0.391,0.4-0.854,0.6-1.396,0.6h-0.389c-0.566,0-1.049-0.191-1.449-0.582c-0.401-0.39-0.613-0.865-0.635-1.431v-0.495
		c0-0.023-0.013-0.036-0.037-0.036c-0.047,0-0.069,0.013-0.069,0.036c-1.438,1.908-3.405,2.861-5.902,2.861
		C3.947,34.726,2.62,34.202,1.573,33.154z M21.844,32.306c-1.578-1.613-2.367-3.988-2.367-7.122c0-3.086,0.76-5.448,2.277-7.086
		c1.521-1.637,3.684-2.456,6.487-2.456c1.25,0,2.448,0.082,3.604,0.247c0.543,0.072,0.99,0.318,1.344,0.742
		c0.354,0.425,0.529,0.92,0.529,1.483c0,0.472-0.185,0.849-0.548,1.132c-0.183,0.141-0.379,0.234-0.587,0.281h-0.667
		c-0.919-0.188-1.944-0.281-3.075-0.281c-1.482,0-2.591,0.472-3.32,1.411c-0.731,0.943-1.098,2.453-1.098,4.525
		c0,2.121,0.389,3.64,1.166,4.559c0.778,0.919,1.98,1.377,3.605,1.377c1.156,0,2.156-0.104,3.006-0.314
		c0.445-0.119,0.854-0.037,1.217,0.248c0.365,0.28,0.548,0.645,0.548,1.093c0,0.565-0.171,1.063-0.512,1.485
		c-0.343,0.424-0.784,0.683-1.327,0.776c-1.2,0.212-2.378,0.317-3.534,0.317C25.673,34.726,23.422,33.921,21.844,32.306z
		 M41.387,33.26c-0.92-0.979-1.38-2.729-1.38-5.249v-7.6c0-0.187-0.104-0.281-0.319-0.281h-1.694c-0.472,0-0.873-0.17-1.202-0.514
		c-0.331-0.341-0.495-0.75-0.495-1.22s0.164-0.872,0.495-1.201c0.33-0.331,0.73-0.495,1.202-0.495h1.694
		c0.213,0,0.319-0.106,0.319-0.318V12c0-0.542,0.194-1.015,0.582-1.412c0.39-0.402,0.854-0.603,1.397-0.603h0.705
		c0.545,0,1.014,0.2,1.416,0.603c0.4,0.397,0.599,0.87,0.599,1.412v4.382c0,0.212,0.104,0.318,0.319,0.318h4.029
		c0.473,0,0.879,0.164,1.219,0.495c0.342,0.33,0.514,0.73,0.514,1.201s-0.172,0.879-0.514,1.22c-0.34,0.343-0.746,0.514-1.219,0.514
		h-4.029c-0.213,0-0.319,0.095-0.319,0.281v7.141c0,1.532,0.165,2.52,0.496,2.969c0.329,0.446,1.014,0.671,2.049,0.671
		c0.565,0,0.99-0.023,1.271-0.072c0.475-0.047,0.885,0.06,1.24,0.318c0.352,0.259,0.529,0.613,0.529,1.062
		c0,0.519-0.172,0.983-0.514,1.396c-0.34,0.412-0.76,0.643-1.256,0.688c-1.035,0.094-1.813,0.141-2.332,0.141
		C43.907,34.726,42.305,34.239,41.387,33.26z M114.629,32.306c-1.578-1.613-2.367-3.988-2.367-7.122c0-3.086,0.76-5.448,2.277-7.086
		c1.521-1.637,3.684-2.456,6.486-2.456c1.248,0,2.451,0.082,3.604,0.247c0.543,0.072,0.989,0.318,1.344,0.742
		c0.354,0.425,0.53,0.92,0.53,1.483c0,0.472-0.183,0.849-0.549,1.132c-0.183,0.141-0.379,0.234-0.588,0.281H124.7
		c-0.918-0.188-1.942-0.281-3.073-0.281c-1.484,0-2.594,0.472-3.322,1.411c-0.729,0.943-1.096,2.453-1.096,4.525
		c0,2.121,0.389,3.64,1.167,4.559c0.776,0.919,1.979,1.377,3.603,1.377c1.155,0,2.156-0.104,3.008-0.314
		c0.447-0.119,0.853-0.037,1.216,0.248c0.366,0.28,0.55,0.645,0.55,1.093c0,0.565-0.171,1.063-0.514,1.485
		c-0.34,0.424-0.782,0.683-1.325,0.776c-1.2,0.212-2.379,0.317-3.532,0.317C118.458,34.726,116.208,33.921,114.629,32.306z
		 M151.896,33.154c-1.047-1.049-1.57-2.409-1.57-4.083c0-2.049,0.783-3.64,2.35-4.769c1.566-1.132,3.965-1.698,7.191-1.698h1.449
		c0.211,0,0.316-0.104,0.316-0.318v-0.281c0-1.084-0.258-1.846-0.777-2.28c-0.517-0.438-1.436-0.655-2.754-0.655
		c-1.367,0-3.039,0.248-5.021,0.744c-0.422,0.117-0.812,0.04-1.165-0.229c-0.354-0.272-0.529-0.632-0.529-1.079
		c0-0.543,0.166-1.032,0.495-1.467c0.329-0.438,0.755-0.703,1.272-0.797c1.789-0.397,3.474-0.6,5.054-0.6
		c3.015,0,5.124,0.541,6.326,1.625c1.2,1.084,1.802,2.979,1.802,5.69v9.401c0,0.541-0.195,1.013-0.585,1.413
		c-0.388,0.4-0.853,0.6-1.396,0.6h-0.389c-0.564,0-1.049-0.191-1.449-0.582c-0.397-0.39-0.611-0.865-0.636-1.431v-0.495
		c0-0.023-0.012-0.036-0.036-0.036c-0.046,0-0.068,0.013-0.068,0.036c-1.438,1.908-3.406,2.861-5.904,2.861
		C154.271,34.726,152.947,34.202,151.896,33.154z M201.361,33.26c-0.918-0.979-1.379-2.729-1.379-5.249v-7.6
		c0-0.187-0.105-0.281-0.318-0.281h-1.695c-0.471,0-0.871-0.17-1.201-0.514c-0.33-0.341-0.494-0.75-0.494-1.22
		s0.164-0.872,0.494-1.201c0.33-0.331,0.73-0.495,1.201-0.495h1.695c0.213,0,0.318-0.106,0.318-0.318V12
		c0-0.542,0.193-1.015,0.584-1.412c0.389-0.402,0.854-0.603,1.396-0.603h0.707c0.541,0,1.012,0.2,1.412,0.603
		c0.4,0.397,0.602,0.87,0.602,1.412v4.382c0,0.212,0.105,0.318,0.316,0.318h4.029c0.473,0,0.877,0.164,1.219,0.495
		c0.344,0.33,0.514,0.73,0.514,1.201s-0.17,0.879-0.514,1.22c-0.342,0.343-0.746,0.514-1.219,0.514H205
		c-0.211,0-0.316,0.095-0.316,0.281v7.141c0,1.532,0.164,2.52,0.494,2.969c0.33,0.446,1.012,0.671,2.049,0.671
		c0.564,0,0.99-0.023,1.273-0.072c0.471-0.047,0.883,0.06,1.236,0.318c0.352,0.259,0.529,0.613,0.529,1.062
		c0,0.519-0.17,0.983-0.516,1.396c-0.34,0.412-0.758,0.643-1.252,0.688c-1.035,0.094-1.814,0.141-2.334,0.141
		C203.883,34.726,202.279,34.239,201.361,33.26z M130.725,33.772c-0.388-0.4-0.582-0.872-0.582-1.413V9.88
		c0-0.541,0.194-1.014,0.582-1.414c0.391-0.399,0.854-0.6,1.396-0.6h0.707c0.541,0,1.014,0.2,1.415,0.6
		c0.397,0.4,0.599,0.873,0.599,1.414v8.2c0,0.022,0.012,0.034,0.036,0.034c0.022,0,0.046-0.012,0.069-0.034
		c1.65-1.627,3.466-2.438,5.443-2.438c2.144,0,3.699,0.612,4.664,1.836c0.967,1.227,1.45,3.324,1.45,6.292v8.59
		c0,0.541-0.2,1.014-0.603,1.413c-0.4,0.4-0.871,0.601-1.412,0.601h-0.566c-0.54,0-1.013-0.2-1.414-0.601
		c-0.398-0.399-0.6-0.872-0.6-1.413v-7.883c0-2.049-0.219-3.404-0.654-4.064c-0.436-0.659-1.255-0.988-2.457-0.988
		c-0.941,0-1.838,0.424-2.686,1.271c-0.848,0.849-1.272,1.756-1.272,2.724v8.94c0,0.541-0.2,1.014-0.599,1.413
		c-0.401,0.4-0.874,0.601-1.415,0.601h-0.707C131.579,34.371,131.115,34.173,130.725,33.772z M171.639,33.772
		c-0.4-0.4-0.602-0.872-0.602-1.413v-14.35c0-0.542,0.199-1.014,0.602-1.415c0.398-0.401,0.871-0.599,1.414-0.599h0.705
		c0.542,0,1.016,0.197,1.414,0.599c0.4,0.401,0.602,0.873,0.602,1.415v1.483c0,0.024,0.013,0.035,0.033,0.035
		c0.049,0,0.074-0.011,0.074-0.035c0.682-0.942,1.575-1.714,2.686-2.313c1.105-0.601,2.32-0.972,3.64-1.115
		c0.494-0.045,0.919,0.113,1.271,0.479c0.354,0.364,0.533,0.796,0.533,1.29s-0.179,0.918-0.533,1.271
		c-0.353,0.354-0.776,0.555-1.271,0.603c-4.17,0.33-6.254,2.449-6.254,6.36v6.292c0,0.541-0.202,1.013-0.603,1.413
		s-0.871,0.6-1.414,0.6h-0.883C172.51,34.371,172.037,34.173,171.639,33.772z M188.355,33.772c-0.401-0.4-0.603-0.872-0.603-1.413
		v-14.35c0-0.542,0.2-1.014,0.603-1.415c0.398-0.401,0.871-0.599,1.414-0.599h0.918c0.543,0,1.012,0.197,1.414,0.599
		s0.598,0.873,0.598,1.415v14.35c0,0.541-0.195,1.013-0.598,1.413s-0.871,0.6-1.414,0.6h-0.918
		C189.227,34.371,188.754,34.173,188.355,33.772z M10.072,29.938c0.824-0.836,1.238-1.984,1.238-3.447v-0.636
		c0-0.212-0.106-0.317-0.317-0.317H9.545c-3.371,0-5.054,1.037-5.054,3.109c0,0.755,0.216,1.367,0.652,1.839
		c0.436,0.473,0.997,0.707,1.679,0.707C8.165,31.193,9.247,30.774,10.072,29.938z M160.398,29.938
		c0.824-0.836,1.234-1.984,1.234-3.447v-0.636c0-0.212-0.105-0.317-0.316-0.317h-1.449c-3.367,0-5.053,1.037-5.053,3.109
		c0,0.755,0.217,1.367,0.653,1.839c0.435,0.473,0.995,0.707,1.677,0.707C158.488,31.193,159.572,30.774,160.398,29.938z
		 M188.355,11.506c-0.401-0.4-0.603-0.873-0.603-1.413V9.881c0-0.541,0.2-1.014,0.603-1.414c0.398-0.399,0.871-0.6,1.414-0.6h0.918
		c0.543,0,1.012,0.2,1.414,0.6c0.402,0.4,0.598,0.873,0.598,1.414v0.212c0,0.54-0.195,1.013-0.598,1.413
		c-0.402,0.399-0.871,0.602-1.414,0.602h-0.918C189.227,12.108,188.754,11.906,188.355,11.506z"/>
</g>
</svg>
