<?xml version="1.0" encoding="utf-8"?>
<!-- Generator: Adobe Illustrator 16.2.0, SVG Export Plug-In . SVG Version: 6.00 Build 0)  -->
<!DOCTYPE svg PUBLIC "-//W3C//DTD SVG 1.1//EN" "http://www.w3.org/Graphics/SVG/1.1/DTD/svg11.dtd">
<svg version="1.1" id="Layer_1" xmlns="http://www.w3.org/2000/svg" xmlns:xlink="http://www.w3.org/1999/xlink" x="0px" y="0px"
	 width="242px" height="31.89px" viewBox="0 0 242 31.89" enable-background="new 0 0 242 31.89" xml:space="preserve">
<g>
	<g>
		<path fill="#FFFFFF" d="M18.025,24.931c-1.133-0.562-2.066-1.44-2.786-2.653c-0.707-1.199-1.067-2.707-1.067-4.52
			c0-2.534,0.707-4.506,2.12-5.92c1.413-1.413,3.373-2.12,5.893-2.12c2.586,0,4.572,0.693,5.973,2.08
			c1.399,1.387,2.093,3.333,2.093,5.826c0,1.813-0.307,3.307-0.92,4.467c-0.6,1.159-1.479,2.066-2.64,2.705
			c-1.16,0.641-2.586,0.975-4.32,0.975C20.625,25.771,19.185,25.491,18.025,24.931z M0,25.503V9.986h7.959
			c1.733,0,3.04,0.413,3.906,1.239c0.867,0.827,1.293,2,1.293,3.52c0,1.574-0.467,2.787-1.413,3.68
			c-0.947,0.88-2.374,1.32-4.306,1.32H4.813v5.758H0z M34.316,25.503L30.863,9.986h4.56l1.64,8.666l2.386-8.666h4.546l2.399,8.666
			l1.64-8.666h4.533l-3.413,15.518h-4.707l-2.72-9.772l-2.706,9.772H34.316z M54.141,25.503V9.986h12.852v3.306H58.94v2.466h7.466
			v3.173H58.94v3.054h8.279v3.519H54.141z M69.873,25.503V9.986h7.986c1.479,0,2.613,0.12,3.4,0.373
			c0.786,0.253,1.413,0.733,1.893,1.413c0.479,0.693,0.72,1.533,0.72,2.52c0,0.854-0.187,1.6-0.547,2.228
			c-0.374,0.625-0.88,1.133-1.52,1.518c-0.413,0.254-0.973,0.455-1.679,0.615c0.573,0.186,0.986,0.385,1.239,0.572
			c0.187,0.12,0.44,0.4,0.773,0.813c0.333,0.414,0.56,0.734,0.667,0.961l2.32,4.506h-5.413l-2.56-4.745
			c-0.32-0.614-0.613-1.013-0.867-1.2c-0.346-0.24-0.746-0.359-1.186-0.359h-0.413v6.305H69.873z M24.611,21.17
			c0.56-0.666,0.853-1.865,0.853-3.612c0-1.453-0.307-2.52-0.893-3.2c-0.586-0.667-1.386-1.014-2.386-1.014
			c-0.973,0-1.747,0.347-2.333,1.027c-0.587,0.693-0.88,1.826-0.88,3.399s0.293,2.693,0.867,3.372
			c0.586,0.694,1.374,1.042,2.386,1.042C23.251,22.185,24.051,21.837,24.611,21.17z M7.933,16.118c0.373-0.32,0.56-0.733,0.56-1.227
			c0-0.494-0.16-0.906-0.48-1.253c-0.333-0.333-0.947-0.507-1.84-0.507h-1.36v3.466h1.174C6.906,16.598,7.559,16.438,7.933,16.118z
			 M77.979,16.064c0.306-0.066,0.573-0.227,0.773-0.493c0.2-0.267,0.307-0.56,0.307-0.893c0-0.507-0.16-0.894-0.48-1.16
			c-0.32-0.267-0.92-0.4-1.786-0.4h-2.106v3.147h2.013C76.925,16.265,77.338,16.198,77.979,16.064z"/>
	</g>
	<g>
		<polygon fill-rule="evenodd" clip-rule="evenodd" fill="#DD0000" points="190.847,31.89 190.847,25.518 190.847,25.518 
			190.847,9.865 209.618,9.865 201.698,4.6 190.847,4.6 190.847,0.013 203.592,0.013 242,25.518 203.592,25.518 203.592,31.89 		"/>
	</g>
	<g>
		<polygon fill="#DD0000" points="85.844,9.986 100.416,9.986 100.416,13.812 95.523,13.812 95.523,25.503 90.737,25.503 
			90.737,13.812 85.844,13.812 		"/>
		<path fill="#DD0000" d="M102.656,25.503V9.986h7.986c1.479,0,2.613,0.12,3.399,0.373c0.787,0.253,1.413,0.733,1.893,1.413
			c0.479,0.693,0.72,1.533,0.72,2.52c0,0.854-0.188,1.6-0.547,2.228c-0.373,0.625-0.867,1.133-1.52,1.518
			c-0.399,0.254-0.959,0.455-1.681,0.615c0.574,0.186,0.987,0.385,1.254,0.572c0.173,0.12,0.427,0.4,0.76,0.813
			c0.333,0.414,0.56,0.734,0.68,0.961l2.32,4.506h-5.426l-2.56-4.745c-0.32-0.614-0.613-1.013-0.866-1.2
			c-0.348-0.24-0.747-0.359-1.174-0.359h-0.427v6.305H102.656z M107.468,16.265h2.027c0.213,0,0.639-0.067,1.267-0.201
			c0.319-0.066,0.573-0.227,0.773-0.493c0.201-0.267,0.306-0.56,0.306-0.893c0-0.507-0.16-0.894-0.48-1.16
			c-0.319-0.267-0.906-0.4-1.786-0.4h-2.106V16.265z"/>
		<path fill="#DD0000" d="M128.999,22.944h-5.466l-0.747,2.56h-4.906l5.839-15.518h5.226l5.826,15.518h-5.012L128.999,22.944z
			 M127.999,19.583l-1.72-5.585l-1.707,5.585H127.999z"/>
		<rect x="136.505" y="9.986" fill="#DD0000" width="4.8" height="15.518"/>
		<polygon fill="#DD0000" points="144.784,9.986 149.264,9.986 155.104,18.571 155.104,9.986 159.623,9.986 159.623,25.503 
			155.104,25.503 149.291,16.972 149.291,25.503 144.784,25.503 		"/>
		<rect x="136.532" fill-rule="evenodd" clip-rule="evenodd" fill="#DD0000" width="4.786" height="4.56"/>
	</g>
	<g>
		<path fill-rule="evenodd" clip-rule="evenodd" fill="#FFFFFF" d="M178.194,31.89v-6.372h-12.746V9.865h25.491v15.653l0,0v6.372
			H178.194z M144.758,4.6V0.013h46.182V4.6H144.758z"/>
	</g>
</g>
</svg>
