<svg width="15" height="15" viewBox="0 0 19 19" fill="none" xmlns="http://www.w3.org/2000/svg">
<path d="M16.5701 13.9252C16.8171 13.8402 17.0503 13.7193 17.2622 13.5664C17.6363 12.596 17.9544 11.6048 18.2148 10.5978C18.5543 9.30841 18.791 7.99409 18.9228 6.66724C19.0257 5.61142 19.0257 4.5481 18.9228 3.49228C18.8212 2.51439 18.5672 1.52063 17.9703 0.952309C17.3734 0.38399 16.4018 0.126818 15.4492 0.0410943C14.3909 -0.0319944 13.328 -0.00754995 12.2741 0.114118C12.506 0.219124 12.7202 0.359429 12.9091 0.530039C13.4934 1.06343 13.7632 1.97465 13.8807 2.86681C13.9737 3.57608 14.0067 4.29193 13.9792 5.00674C13.9178 6.47029 13.6952 7.92261 13.3155 9.33739C13.0295 10.4654 12.6504 11.5677 12.182 12.633C12.7801 13.0045 13.4065 13.3283 14.0553 13.6014C14.8968 13.9443 15.8207 14.1633 16.5701 13.9252Z" fill="#002F6C"/>
<path d="M2.79955 11.2235C2.74764 11.4815 2.73586 11.746 2.76462 12.0077C3.41775 12.8061 4.11527 13.5672 4.85386 14.2873C5.80645 15.2315 6.83318 16.0979 7.9242 16.8781C8.78775 17.4889 9.70488 18.0202 10.6643 18.4655C11.5565 18.8751 12.5472 19.1386 13.3346 18.9227C14.122 18.7068 14.8269 17.9703 15.3889 17.1543C15.9909 16.278 16.5046 15.3442 16.9225 14.3667C16.7086 14.5262 16.4707 14.6505 16.2176 14.735C15.4683 14.9763 14.5443 14.754 13.7124 14.4175C13.0518 14.1404 12.4146 13.8102 11.8074 13.4301C10.5736 12.6431 9.42918 11.7244 8.39412 10.6901C7.56002 9.87823 6.79434 8.99896 6.10486 8.06119C5.48597 8.39589 4.89459 8.77915 4.33631 9.20735C3.6219 9.76297 2.96783 10.4551 2.79955 11.2235Z" fill="#002F6C"/>
<path d="M12.0137 0.634833C11.8232 0.470471 11.6092 0.335621 11.3787 0.234788C10.345 0.394744 9.32187 0.616328 8.31467 0.898355C7.03089 1.24059 5.77602 1.68327 4.56167 2.22231C3.59826 2.66193 2.67955 3.19356 1.81836 3.8098C1.01505 4.38764 0.268906 5.11471 0.0656981 5.91162C-0.13751 6.70854 0.157773 7.69913 0.580064 8.59764C1.03802 9.54886 1.58668 10.4537 2.21843 11.2995C2.18798 11.0348 2.19977 10.7669 2.25335 10.5058C2.42163 9.73428 3.07572 9.04214 3.78695 8.49287C4.36065 8.05837 4.96915 7.67183 5.60628 7.33718C6.90465 6.65909 8.27405 6.1267 9.6895 5.7497C10.8016 5.43339 11.9379 5.20933 13.0869 5.07978C13.1127 4.37237 13.0798 3.66404 12.9885 2.96208C12.871 2.06992 12.5916 1.1587 12.0137 0.634833Z" fill="#002F6C"/>
</svg>
