<?xml version="1.0" standalone="no"?>
<!DOCTYPE svg PUBLIC "-//W3C//DTD SVG 1.1//EN" "http://www.w3.org/Graphics/SVG/1.1/DTD/svg11.dtd">
<!--Generator: Xara Xtreme (www.xara.com), SVG filter version: 1.0.0.13-->
<svg stroke-width="0.501" stroke-linejoin="bevel" fill-rule="evenodd" xmlns:xlink="http://www.w3.org/1999/xlink" xmlns="http://www.w3.org/2000/svg" version="1.1" overflow="visible" width="102pt" height="67.5pt" viewBox="0 0 102 67.5">
 <defs>
  <marker id="DefaultArrow2" markerUnits="strokeWidth" viewBox="0 0 1 1" markerWidth="1" markerHeight="1" overflow="visible" orient="auto">
   <!-- REF_ARROW_STRAIGHT (-2) -->
   <g transform="scale(0.0092592592)">
    <!-- 1/108 -->
    <path d="M -9 54 L -9 -54 L 117 0 z"/>
   </g>
  </marker>
  <marker id="DefaultArrow3" markerUnits="strokeWidth" viewBox="0 0 1 1" markerWidth="1" markerHeight="1" overflow="visible" orient="auto">
   <!-- REF_ARROW_ANGLED -->
   <g transform="scale(0.0092592592)">
    <path d="M -27 54 L -9 0 L -27 -54 L 135 0 z"/>
   </g>
  </marker>
  <marker id="DefaultArrow4" markerUnits="strokeWidth" viewBox="0 0 1 1" markerWidth="1" markerHeight="1" overflow="visible" orient="auto">
   <!-- REF_ARROW_ROUNDED -->
   <g transform="scale(0.0092592592)">
    <path d="M -9,0 L -9,-45 C -9,-51.708 2.808,-56.580 9,-54 L 117,-9 C 120.916,-7.369 126.000,-4.242 126,0 C 126,4.242 120.916,7.369 117,9 L 9,54 C 2.808,56.580 -9,51.708 -9,45 z"/>
   </g>
  </marker>
  <marker id="DefaultArrow5" markerUnits="strokeWidth" viewBox="0 0 1 1" markerWidth="1" markerHeight="1" overflow="visible" orient="auto">
   <!-- REF_ARROW_SPOT -->
   <g transform="scale(0.0092592592)">
    <path d="M -54, 0 C -54,29.807 -29.807,54 0,54 C 29.807,54 54,29.807 54,0 C 54,-29.807 29.807,-54 0,-54 C -29.807,-54 -54,-29.807 -54,0 z"/>
   </g>
  </marker>
  <marker id="DefaultArrow6" markerUnits="strokeWidth" viewBox="0 0 1 1" markerWidth="1" markerHeight="1" overflow="visible" orient="auto">
   <!-- REF_ARROW_DIAMOND -->
   <g transform="scale(0.0092592592)">
    <path d="M -63,0 L 0,63 L 63,0 L 0,-63 z"/>
   </g>
  </marker>
  <marker id="DefaultArrow7" markerUnits="strokeWidth" viewBox="0 0 1 1" markerWidth="1" markerHeight="1" overflow="visible" orient="auto">
   <!-- REF_ARROW_FEATHER -->
   <g transform="scale(0.0092592592)">
    <path d="M 18,-54 L 108,-54 L 63,0 L 108,54 L 18, 54 L -36,0 z"/>
   </g>
  </marker>
  <marker id="DefaultArrow8" markerUnits="strokeWidth" viewBox="0 0 1 1" markerWidth="1" markerHeight="1" overflow="visible" orient="auto">
   <!-- REF_ARROW_FEATHER2 -->
   <g transform="scale(0.0092592592)">
    <path d="M -36,0 L 18,-54 L 54,-54 L 18,-18 L 27,-18 L 63,-54 L 99,-54 L 63,-18 L 72,-18 L 108,-54 L 144,-54 L 90,0 L 144,54 L 108,54 L 72,18 L 63,18 L 99,54 L 63,54 L 27,18 L 18,18 L 54,54 L 18,54 z"/>
   </g>
  </marker>
  <marker id="DefaultArrow9" markerUnits="strokeWidth" viewBox="0 0 1 1" markerWidth="1" markerHeight="1" overflow="visible" orient="auto">
   <!-- REF_ARROW_HOLLOWDIAMOND -->
   <g transform="scale(0.0092592592)">
    <path d="M 0,45 L -45,0 L 0, -45 L 45, 0 z M 0, 63 L-63, 0 L 0, -63 L 63, 0 z"/>
   </g>
  </marker>
  <filter id="StainedFilter">
   <feBlend mode="multiply" in2="BackgroundImage" in="SourceGraphic" result="blend"/>
   <feComposite in="blend" in2="SourceAlpha" operator="in" result="comp"/>
  </filter>
  <filter id="BleachFilter">
   <feBlend mode="screen" in2="BackgroundImage" in="SourceGraphic" result="blend"/>
   <feComposite in="blend" in2="SourceAlpha" operator="in" result="comp"/>
  </filter>
  <filter id="InvertTransparencyBitmapFilter">
   <feComponentTransfer>
    <feFuncR type="gamma" amplitude="1.055" exponent=".416666666" offset="-0.055"/>
    <feFuncG type="gamma" amplitude="1.055" exponent=".416666666" offset="-0.055"/>
    <feFuncB type="gamma" amplitude="1.055" exponent=".416666666" offset="-0.055"/>
   </feComponentTransfer>
   <feComponentTransfer>
    <feFuncR type="linear" slope="-1" intercept="1"/>
    <feFuncG type="linear" slope="-1" intercept="1"/>
    <feFuncB type="linear" slope="-1" intercept="1"/>
    <feFuncA type="linear" slope="1" intercept="0"/>
   </feComponentTransfer>
   <feComponentTransfer>
    <feFuncR type="gamma" amplitude="1" exponent="2.4" offset="0"/>
    <feFuncG type="gamma" amplitude="1" exponent="2.4" offset="0"/>
    <feFuncB type="gamma" amplitude="1" exponent="2.4" offset="0"/>
   </feComponentTransfer>
  </filter>
 </defs>
 <g id="Document" fill="none" stroke="black" font-family="Times New Roman" font-size="16" transform="scale(1 -1)">
  <g id="Spread" transform="translate(0 -67.5)">
   <g id="Layer 1">
    <g id="Group" stroke="none">
     <g id="Group_1" fill-rule="nonzero" fill="#000000">
      <path d="M 4.035,11.917 L 4.035,12.883 C 4.033,13.203 4.086,13.425 4.196,13.547 C 4.306,13.672 4.694,13.731 4.951,13.723 C 5.215,13.731 5.6,13.672 5.692,13.547 C 5.785,13.425 5.828,13.203 5.822,12.883 L 5.822,11.662 C 5.826,11.384 5.802,11.171 5.743,11.019 C 5.687,10.872 5.575,10.768 5.41,10.712 C 5.242,10.656 4.586,10.629 4.255,10.633 L 3.744,10.633 L 3.744,8.903 L 4.32,8.903 C 4.633,8.903 5.289,8.88 5.46,8.829 C 5.636,8.78 5.754,8.69 5.822,8.555 C 5.89,8.423 5.922,8.23 5.919,7.978 L 5.919,5.56 C 5.921,5.34 5.902,5.172 5.864,5.052 C 5.822,4.932 5.75,4.848 5.648,4.805 C 5.548,4.759 5.199,4.734 5.017,4.736 C 4.746,4.732 4.352,4.783 4.25,4.906 C 4.144,5.025 4.094,5.243 4.101,5.56 L 4.101,7.68 L 1.497,7.68 L 1.497,5.798 C 1.494,5.218 1.549,4.742 1.659,4.368 C 1.773,3.991 1.952,3.703 2.208,3.496 C 2.465,3.289 2.805,3.143 3.24,3.061 C 3.67,2.979 4.206,2.94 4.846,2.943 C 5.486,2.94 6.631,2.979 7.064,3.063 C 7.494,3.146 7.839,3.292 8.095,3.502 C 8.346,3.71 8.53,4.003 8.643,4.375 C 8.753,4.747 8.806,5.222 8.806,5.798 L 8.806,7.665 C 8.806,8.105 8.755,8.473 8.654,8.766 C 8.555,9.057 8.384,9.282 8.147,9.446 C 7.911,9.611 7.589,9.717 7.186,9.773 C 7.569,9.841 7.868,9.947 8.086,10.101 C 8.307,10.249 8.459,10.455 8.545,10.714 C 8.633,10.973 8.677,11.3 8.675,11.694 L 8.675,12.648 C 8.677,13.224 8.628,13.698 8.525,14.073 C 8.422,14.447 8.246,14.743 8.004,14.952 C 7.76,15.163 7.433,15.309 7.015,15.398 C 6.599,15.48 5.465,15.522 4.844,15.52 C 4.227,15.522 3.71,15.48 3.296,15.398 C 2.883,15.309 2.55,15.163 2.307,14.952 C 2.06,14.743 1.883,14.447 1.779,14.073 C 1.673,13.698 1.619,13.224 1.625,12.648 L 1.625,11.917 L 4.035,11.917 Z" stroke-width="0.39" marker-start="none" marker-end="none" stroke-miterlimit="79.8403193612775"/>
      <path d="M 11.297,15.375 L 9.522,3.084 L 12.094,3.084 L 12.41,6.196 L 14.172,6.196 L 14.488,3.084 L 17.125,3.084 L 15.301,15.375 L 11.297,15.375 Z M 12.666,7.988 L 13.314,13.997 L 13.918,7.988 L 12.666,7.988 Z" stroke-width="0.39" marker-start="none" marker-end="none" stroke-miterlimit="79.8403193612775"/>
      <path d="M 20.949,15.375 L 18.25,15.375 L 18.25,2.884 L 28.111,2.884 L 28.111,1.131 L 30.208,1.131 L 30.208,4.774 L 29.257,4.774 L 29.257,15.375 L 26.563,15.375 L 26.563,4.774 L 25.101,4.774 L 25.101,15.375 L 22.408,15.375 L 22.408,4.774 L 20.949,4.774 L 20.949,15.375 Z" stroke-width="0.39" marker-start="none" marker-end="none" stroke-miterlimit="79.8403193612775"/>
      <path d="M 31.072,15.375 L 31.072,3.084 L 33.761,3.084 L 35.846,9.425 L 35.835,3.084 L 38.559,3.084 L 38.559,15.375 L 35.735,15.375 L 33.805,8.477 L 33.799,15.375 L 31.072,15.375 Z" stroke-width="0.39" marker-start="none" marker-end="none" stroke-miterlimit="79.8403193612775"/>
      <path d="M 39.799,15.375 L 39.799,13.689 L 41.671,13.689 L 41.671,3.084 L 44.651,3.084 L 44.651,13.689 L 46.524,13.689 L 46.524,15.375 L 39.799,15.375 Z" stroke-width="0.39" marker-start="none" marker-end="none" stroke-miterlimit="79.8403193612775"/>
      <path d="M 70.583,13.689 L 71.201,13.689 C 71.409,13.691 71.572,13.67 71.692,13.626 C 71.812,13.581 71.9,13.501 71.954,13.381 C 72.005,13.263 72.032,13.088 72.03,12.865 L 72.03,9.699 C 72.032,9.474 72.005,9.299 71.954,9.174 C 71.9,9.051 71.812,8.961 71.692,8.914 C 71.572,8.865 71.409,8.84 71.201,8.842 L 70.583,8.842 L 70.583,13.689 Z M 70.583,6.954 L 71.014,6.954 C 71.69,6.949 72.269,6.991 72.75,7.079 C 73.23,7.169 73.621,7.319 73.927,7.536 C 74.229,7.756 74.452,8.059 74.596,8.443 C 74.738,8.832 74.807,9.325 74.807,9.919 L 74.807,12.329 C 74.807,12.977 74.729,13.501 74.569,13.904 C 74.411,14.304 74.164,14.613 73.824,14.828 C 73.489,15.041 73.049,15.187 72.516,15.265 C 71.979,15.343 71.333,15.381 70.583,15.375 L 67.808,15.375 L 67.808,3.084 L 70.583,3.084 L 70.583,6.954 Z" stroke-width="0.39" marker-start="none" marker-end="none" stroke-miterlimit="79.8403193612775"/>
      <path d="M 75.545,15.375 L 78.146,5.282 C 78.329,4.608 77.048,4.615 76.953,4.662 L 76.941,3.084 C 77.112,3.043 77.305,3.011 77.52,2.985 C 77.74,2.957 77.963,2.943 78.195,2.943 C 78.603,2.94 79.579,3.023 79.902,3.192 C 80.223,3.359 80.519,3.632 80.781,4.013 C 81.043,4.392 81.283,5.306 81.505,5.937 L 83.36,15.375 L 80.537,15.375 L 79.706,8.198 L 79.595,8.198 L 78.307,15.375 L 75.545,15.375 Z" stroke-width="0.39" marker-start="none" marker-end="none" stroke-miterlimit="79.8403193612775"/>
      <path d="M 88.733,13.689 L 88.733,4.774 L 86.688,4.774 C 86.815,5.065 87.132,5.634 87.132,8.191 C 87.155,8.563 87.166,9.013 87.166,9.535 L 87.166,13.689 L 88.733,13.689 Z M 84.456,15.375 L 84.456,9.887 C 84.456,5.83 84.546,4.774 83.341,4.774 L 83.341,1.131 L 85.438,1.131 L 85.438,2.884 L 90.173,2.884 L 90.173,1.131 L 92.271,1.131 L 92.271,4.774 L 91.506,4.774 L 91.506,15.375 L 84.456,15.375 Z" stroke-width="0.39" marker-start="none" marker-end="none" stroke-miterlimit="79.8403193612775"/>
      <path d="M 68.372,31.588 L 68.372,21.189 L 70.409,21.189 L 70.47,29.034 L 71.788,21.189 L 74.413,21.189 L 75.914,28.962 L 75.855,21.189 L 77.995,21.189 L 77.995,31.588 L 74.604,31.588 L 73.176,23.34 L 71.815,31.588 L 68.372,31.588 Z" stroke-width="0.332" marker-start="none" marker-end="none" stroke-miterlimit="79.8403193612775"/>
      <path d="M 81.666,31.588 L 79.283,31.588 L 79.283,21.189 L 81.666,21.189 L 81.666,26.261 L 83.094,26.261 L 83.094,21.189 L 85.48,21.189 L 85.48,31.588 L 83.094,31.588 L 83.094,27.855 L 81.666,27.855 L 81.666,31.588 Z" stroke-width="0.332" marker-start="none" marker-end="none" stroke-miterlimit="79.8403193612775"/>
      <path d="M 89.351,31.588 L 86.971,31.588 L 86.971,21.189 L 89.351,21.189 L 89.351,25.832 L 90.752,21.189 L 93.217,21.189 L 91.571,26.592 L 93.31,31.588 L 90.889,31.588 L 89.351,26.987 L 89.351,31.588 Z" stroke-width="0.332" marker-start="none" marker-end="none" stroke-miterlimit="79.8403193612775"/>
      <path d="M 94.376,31.585 L 94.376,21.189 L 96.754,21.189 L 96.754,30.195 L 97.979,30.195 L 97.979,21.189 L 100.362,21.189 L 100.362,31.585 L 94.376,31.585 Z" stroke-width="0.332" marker-start="none" marker-end="none" stroke-miterlimit="79.8403193612775"/>
      <path d="M 48.195,15.375 L 46.421,3.084 L 48.989,3.084 L 49.31,6.196 L 51.068,6.196 L 51.386,3.084 L 54.022,3.084 L 52.199,15.375 L 48.195,15.375 Z M 49.564,7.988 L 50.212,13.997 L 50.816,7.988 L 49.564,7.988 Z" stroke-width="0.39" marker-start="none" marker-end="none" stroke-miterlimit="79.8403193612775"/>
      <path d="M 94.676,15.375 L 92.896,3.084 L 95.47,3.084 L 95.785,6.196 L 97.55,6.196 L 97.866,3.084 L 100.503,3.084 L 98.678,15.375 L 94.676,15.375 Z M 96.043,7.988 L 96.691,13.997 L 97.297,7.988 L 96.043,7.988 Z" stroke-width="0.39" marker-start="none" marker-end="none" stroke-miterlimit="79.8403193612775"/>
      <path d="M 59.778,15.375 L 59.778,13.689 L 61.651,13.689 L 61.651,3.084 L 64.629,3.084 L 64.629,13.689 L 66.503,13.689 L 66.503,15.375 L 59.778,15.375 Z" stroke-width="0.39" marker-start="none" marker-end="none" stroke-miterlimit="79.8403193612775"/>
     </g>
     <path d="M 5.9,28.413 L 5.9,44.774 L 1.874,44.774 L 1.874,51.777 L 16.726,51.777 L 22.657,44.774 L 13.109,44.774 L 13.109,28.413 L 5.9,28.413 Z" stroke-linejoin="miter" stroke-linecap="square" stroke-width="0.809" fill="#000000" marker-start="none" marker-end="none" stroke-miterlimit="79.8403193612775"/>
     <path d="M 1.874,21.369 L 1.874,29.481 L 49.056,29.481 C 51.667,29.481 54.974,31.86 54.974,37.55 C 54.974,42.469 51.515,44.774 49.056,44.774 L 29.089,44.774 L 23.158,51.777 L 36.699,51.777 C 39.563,51.777 40.42,54.308 40.42,55.699 C 40.42,57.141 39.035,58.724 36.631,58.724 L 1.872,58.732 L 1.874,66.369 L 41.345,66.274 C 46.541,66.274 49.792,62.749 49.792,59.566 C 49.792,59.495 49.802,57.283 49.802,57.184 C 49.802,54.606 48.733,51.344 45.996,51.344 L 51.154,51.344 C 58.494,51.344 63.136,47.329 63.136,39.902 L 63.136,33.734 C 63.136,26.581 59.37,21.369 53.608,21.369 L 1.874,21.369 Z" stroke-linejoin="miter" stroke-linecap="square" stroke-width="0.809" fill="#009705" marker-start="none" marker-end="none" stroke-miterlimit="79.8403193612775"/>
    </g>
   </g>
  </g>
 </g>
</svg>
